;onset_sec;note;velocity;offset;duration;freq;boundary;changable_notes
16;0.0;60.0;80.0;0.47291666666666665;0.47291666666666665;261.6255653005986;0;0
18;0.5;69.0;80.0;1.4479166666666665;0.9479166666666665;440.0;0;0
20;1.4999999999999998;67.0;80.0;1.9729166666666664;0.47291666666666665;391.9954359817492;0;0
22;1.9999999999999998;65.0;80.0;2.4729166666666664;0.47291666666666665;349.22823143300394;0;1
24;2.4999999999999996;65.0;80.0;2.735416666666666;0.2354166666666666;349.22823143300394;0;0
26;2.7499999999999996;64.0;80.0;2.985416666666666;0.2354166666666666;329.62755691286986;0;0
28;2.9999999999999996;65.0;80.0;3.4729166666666664;0.4729166666666669;349.22823143300394;0;1
30;3.4999999999999996;69.0;80.0;3.9729166666666664;0.4729166666666669;440.0;0;0
32;3.9999999999999996;62.0;80.0;4.472916666666666;0.4729166666666669;293.66476791740763;0;1
34;4.5;67.0;80.0;5.447916666666667;0.947916666666667;391.9954359817492;0;0
36;5.5;65.0;80.0;5.972916666666666;0.47291666666666643;349.22823143300394;0;0
38;6.0;64.0;80.0;6.472916666666666;0.47291666666666643;329.62755691286986;0;1
40;6.5;64.0;80.0;6.735416666666667;0.2354166666666666;329.62755691286986;0;0
42;6.75;62.0;80.0;6.985416666666667;0.2354166666666666;293.66476791740763;0;0
44;7.0;64.0;80.0;7.472916666666666;0.47291666666666643;329.62755691286986;0;1
46;7.5;60.0;80.0;8.447916666666666;0.9479166666666661;261.6255653005986;0;0
48;8.5;67.0;80.0;8.972916666666666;0.47291666666666643;391.9954359817492;1;1
50;9.0;64.0;80.0;9.472916666666666;0.47291666666666643;329.62755691286986;0;0
52;9.5;69.0;80.0;9.972916666666666;0.47291666666666643;440.0;0;0
54;10.0;62.0;80.0;10.472916666666666;0.47291666666666643;293.66476791740763;0;1
56;10.5;64.0;80.0;10.735416666666667;0.2354166666666675;329.62755691286986;0;0
58;10.75;65.0;80.0;10.985416666666667;0.2354166666666675;349.22823143300394;0;0
60;11.0;67.0;80.0;11.472916666666666;0.47291666666666643;391.9954359817492;0;1
62;11.5;55.0;80.0;11.972916666666666;0.47291666666666643;195.99771799087466;0;0
64;12.0;60.0;80.0;12.472916666666666;0.47291666666666643;261.6255653005986;0;1
66;12.5;62.0;80.0;12.735416666666667;0.2354166666666675;293.66476791740763;0;0
68;12.75;64.0;80.0;12.985416666666667;0.2354166666666675;329.62755691286986;0;0
70;13.0;65.0;80.0;14.185416666666667;1.1854166666666668;349.22823143300394;0;1
72;14.25;67.0;80.0;14.485416666666667;0.2354166666666675;391.9954359817492;0;1
74;14.5;64.0;80.0;14.735416666666667;0.2354166666666675;329.62755691286986;0;0
76;14.75;65.0;80.0;14.985416666666667;0.2354166666666675;349.22823143300394;0;0
78;15.0;62.0;80.0;15.472916666666666;0.47291666666666643;293.66476791740763;0;1
80;15.5;60.0;80.0;16.447916666666668;0.9479166666666679;261.6255653005986;0;0
82;16.5;60.0;80.0;16.735416666666666;0.23541666666666572;261.6255653005986;1;1
84;16.75;62.0;80.0;16.985416666666666;0.23541666666666572;293.66476791740763;0;0
86;17.0;64.0;80.0;17.235416666666666;0.23541666666666572;329.62755691286986;0;0
88;17.25;62.0;80.0;17.485416666666666;0.23541666666666572;293.66476791740763;0;0
90;17.5;60.0;80.0;17.735416666666666;0.23541666666666572;261.6255653005986;0;0
92;17.75;64.0;80.0;17.985416666666666;0.23541666666666572;329.62755691286986;0;0
94;18.0;62.0;80.0;18.235416666666666;0.23541666666666572;293.66476791740763;0;1
96;18.25;65.0;80.0;18.485416666666666;0.23541666666666572;349.22823143300394;0;0
98;18.5;64.0;80.0;19.210416666666667;0.7104166666666671;329.62755691286986;0;0
100;19.25;67.0;80.0;19.485416666666666;0.23541666666666572;391.9954359817492;0;0
102;19.5;65.0;80.0;20.210416666666667;0.7104166666666671;349.22823143300394;0;0
104;20.25;69.0;80.0;20.485416666666666;0.23541666666666572;440.0;0;0
106;20.5;67.0;80.0;20.735416666666666;0.23541666666666572;391.9954359817492;0;0
108;20.75;65.0;80.0;20.985416666666666;0.23541666666666572;349.22823143300394;0;0
110;21.0;67.0;80.0;21.235416666666666;0.23541666666666572;391.9954359817492;0;1
112;21.25;62.0;80.0;21.485416666666666;0.23541666666666572;293.66476791740763;0;0
114;21.5;64.0;80.0;21.735416666666666;0.23541666666666572;329.62755691286986;0;0
116;21.75;65.0;80.0;21.985416666666666;0.23541666666666572;349.22823143300394;0;0
118;22.0;64.0;80.0;22.235416666666666;0.23541666666666572;329.62755691286986;0;1
120;22.25;60.0;80.0;22.485416666666666;0.23541666666666572;261.6255653005986;0;0
122;22.5;59.0;80.0;22.972916666666666;0.47291666666666643;246.94165062806212;0;0
124;23.0;60.0;80.0;23.947916666666668;0.9479166666666679;261.6255653005986;0;1
126;24.0;60.0;80.0;24.947916666666668;0.9479166666666679;261.6255653005986;1;1
128;25.0;64.0;80.0;25.947916666666668;0.9479166666666679;329.62755691286986;0;1
130;26.0;69.0;80.0;26.947916666666668;0.9479166666666679;440.0;0;1
132;27.0;65.0;80.0;27.947916666666668;0.9479166666666679;349.22823143300394;0;1
134;28.0;62.0;80.0;28.947916666666668;0.9479166666666679;293.66476791740763;0;1
136;29.0;71.0;80.0;29.947916666666668;0.9479166666666679;493.88330125612424;0;1
138;30.0;72.0;80.0;31.897916666666667;1.8979166666666671;523.2511306011972;0;1
140;32.0;72.0;80.0;32.47291666666667;0.47291666666667;523.2511306011972;1;1
142;32.5;72.0;80.0;32.97291666666667;0.47291666666667;523.2511306011972;0;0
144;33.0;76.0;80.0;34.422916666666666;1.4229166666666657;659.2551138257397;0;1
146;34.5;74.0;80.0;34.97291666666667;0.47291666666667;587.3295358348153;0;0
148;35.0;72.0;80.0;35.47291666666667;0.47291666666667;523.2511306011972;0;1
150;35.5;72.0;80.0;35.97291666666667;0.47291666666667;523.2511306011972;0;0
152;36.0;72.0;80.0;36.47291666666667;0.47291666666667;523.2511306011972;0;1
154;36.5;71.0;80.0;36.735416666666666;0.23541666666666572;493.88330125612424;0;0
156;36.75;72.0;80.0;36.985416666666666;0.23541666666666572;523.2511306011972;0;0
158;37.0;74.0;80.0;38.422916666666666;1.4229166666666657;587.3295358348153;0;1
160;38.5;76.0;80.0;38.97291666666667;0.47291666666667;659.2551138257397;0;1
162;39.0;72.0;80.0;39.947916666666664;0.9479166666666643;523.2511306011972;0;1
164;40.0;67.0;80.0;40.47291666666667;0.47291666666667;391.9954359817492;1;1
166;40.5;69.0;80.0;40.735416666666666;0.23541666666666572;440.0;0;0
168;40.75;71.0;80.0;40.985416666666666;0.23541666666666572;493.88330125612424;0;0
170;41.0;72.0;80.0;41.47291666666667;0.47291666666667;523.2511306011972;0;1
172;41.5;60.0;80.0;41.97291666666667;0.47291666666667;261.6255653005986;0;0
174;42.0;65.0;80.0;42.47291666666667;0.47291666666667;349.22823143300394;0;1
176;42.5;65.0;80.0;42.97291666666667;0.47291666666667;349.22823143300394;0;0
178;43.0;65.0;80.0;43.47291666666667;0.47291666666667;349.22823143300394;0;1
180;43.5;64.0;80.0;43.735416666666666;0.23541666666666572;329.62755691286986;0;0
182;43.75;62.0;80.0;43.985416666666666;0.23541666666666572;293.66476791740763;0;0
184;44.0;64.0;80.0;44.47291666666667;0.47291666666667;329.62755691286986;0;1
186;44.5;62.0;80.0;44.97291666666667;0.47291666666667;293.66476791740763;0;0
188;45.0;64.0;80.0;45.47291666666667;0.47291666666667;329.62755691286986;0;1
190;45.5;60.0;80.0;45.97291666666667;0.47291666666667;261.6255653005986;0;0
192;46.0;62.0;80.0;46.947916666666664;0.9479166666666643;293.66476791740763;0;1
194;47.0;60.0;80.0;47.947916666666664;0.9479166666666643;261.6255653005986;0;1
196;48.0;60.0;80.0;49.18541666666667;1.1854166666666686;261.6255653005986;1;1
198;49.25;59.0;80.0;49.485416666666666;0.23541666666666572;246.94165062806212;0;0
200;49.5;60.0;80.0;49.735416666666666;0.23541666666666572;261.6255653005986;0;0
202;49.75;62.0;80.0;49.985416666666666;0.23541666666666572;293.66476791740763;0;0
204;50.0;64.0;80.0;50.47291666666667;0.47291666666667;329.62755691286986;0;1
206;50.5;60.0;80.0;50.97291666666667;0.47291666666667;261.6255653005986;0;0
208;51.0;57.0;80.0;51.47291666666667;0.47291666666667;220.0;0;1
210;51.5;66.0;80.0;51.97291666666667;0.47291666666667;369.9944227116344;0;0
212;52.0;67.0;80.0;52.47291666666667;0.47291666666667;391.9954359817492;0;1
214;52.5;62.0;80.0;52.97291666666667;0.47291666666667;293.66476791740763;0;0
216;53.0;64.0;80.0;53.47291666666667;0.47291666666667;329.62755691286986;0;1
218;53.5;59.0;80.0;53.97291666666667;0.47291666666667;246.94165062806212;0;0
220;54.0;60.0;80.0;54.235416666666666;0.23541666666666572;261.6255653005986;0;1
222;54.25;62.0;80.0;54.485416666666666;0.23541666666666572;293.66476791740763;0;0
224;54.5;64.0;80.0;54.735416666666666;0.23541666666666572;329.62755691286986;0;0
226;54.75;59.0;80.0;54.985416666666666;0.23541666666666572;246.94165062806212;0;0
228;55.0;60.0;80.0;55.947916666666664;0.9479166666666643;261.6255653005986;0;1
230;56.0;60.0;80.0;56.947916666666664;0.9479166666666643;261.6255653005986;1;1
232;57.0;62.0;80.0;57.947916666666664;0.9479166666666643;293.66476791740763;0;1
234;58.0;64.0;80.0;58.947916666666664;0.9479166666666643;329.62755691286986;0;1
236;59.0;65.0;80.0;60.422916666666666;1.4229166666666657;349.22823143300394;0;1
238;60.5;64.0;80.0;60.97291666666667;0.47291666666667;329.62755691286986;0;0
240;61.0;62.0;80.0;61.47291666666667;0.47291666666667;293.66476791740763;0;1
242;61.5;67.0;80.0;61.97291666666667;0.47291666666667;391.9954359817492;0;0
244;62.0;64.0;80.0;62.47291666666667;0.47291666666667;329.62755691286986;0;1
246;62.5;62.0;80.0;62.735416666666666;0.23541666666666572;293.66476791740763;0;0
248;62.75;64.0;80.0;62.985416666666666;0.23541666666666572;329.62755691286986;0;0
250;63.0;60.0;80.0;63.947916666666664;0.9479166666666643;261.6255653005986;0;0