Column1,onset_sec,note,velocity,offset,duration,freq,boundary,changable_notes
16,0,72,80,0.235416667,0.235416667,523.2511306,0,0
18,0.25,67,80,0.485416667,0.235416667,391.995436,0,0
20,0.5,68,80,0.735416667,0.235416667,415.3046976,0,0
22,0.75,65,80,0.985416667,0.235416667,349.2282314,0,0
24,1,67,80,1.235416667,0.235416667,391.995436,0,1
26,1.25,63,80,1.485416667,0.235416667,311.1269837,0,0
28,1.5,62,80,1.735416667,0.235416667,293.6647679,0,0
30,1.75,60,80,1.985416667,0.235416667,261.6255653,0,0
32,2,59,80,2.235416667,0.235416667,246.9416506,0,1
34,2.25,68,80,2.485416667,0.235416667,415.3046976,0,0
36,2.5,74,80,2.735416667,0.235416667,587.3295358,0,0
38,2.75,77,80,3.222916667,0.472916667,698.4564629,0,0
40,3.25,77,80,3.485416667,0.235416667,698.4564629,0,0
42,3.5,75,80,3.735416667,0.235416667,622.2539674,0,0
44,3.75,74,80,3.985416667,0.235416667,587.3295358,0,0
46,4,77,80,4.235416667,0.235416667,698.4564629,0,1
48,4.25,75,80,4.485416667,0.235416667,622.2539674,0,0
50,4.5,74,80,4.735416667,0.235416667,587.3295358,0,0
52,4.75,72,80,4.985416667,0.235416667,523.2511306,0,0
54,5,75,80,5.235416667,0.235416667,622.2539674,0,1
56,5.25,67,80,5.485416667,0.235416667,391.995436,0,0
58,5.5,68,80,5.735416667,0.235416667,415.3046976,0,0
60,5.75,63,80,5.985416667,0.235416667,311.1269837,0,0
62,6,74,80,6.710416667,0.710416667,587.3295358,0,1
64,6.75,74,80,6.985416667,0.235416667,587.3295358,0,0
66,7,72,80,7.947916667,0.947916667,523.2511306,0,1
68,8,72,80,8.710416667,0.710416667,523.2511306,1,1
70,8.75,67,80,8.985416667,0.235416667,391.995436,0,0
72,9,72,80,9.710416667,0.710416667,523.2511306,0,1
74,9.75,67,80,9.985416667,0.235416667,391.995436,0,0
76,10,68,80,10.59166667,0.591666667,415.3046976,0,1
78,10.625,67,80,10.74166667,0.116666667,391.995436,0,0
80,10.75,65,80,10.86666667,0.116666667,349.2282314,0,0
82,10.875,63,80,10.99166667,0.116666667,311.1269837,0,0
84,11,62,80,11.71041667,0.710416667,293.6647679,0,1
86,11.75,65,80,11.98541667,0.235416667,349.2282314,0,0
88,12,63,80,12.71041667,0.710416667,311.1269837,0,1
90,12.75,62,80,12.86666667,0.116666667,293.6647679,0,0
92,12.875,60,80,12.99166667,0.116666667,261.6255653,0,0
94,13,59,80,13.71041667,0.710416667,246.9416506,0,1
96,13.75,60,80,13.86666667,0.116666667,261.6255653,0,0
98,13.875,62,80,13.99166667,0.116666667,293.6647679,0,0
100,14,63,80,14.71041667,0.710416667,311.1269837,0,1
102,14.75,62,80,14.86666667,0.116666667,293.6647679,0,0
104,14.875,59,80,14.99166667,0.116666667,246.9416506,0,0
106,15,60,80,15.94791667,0.947916667,261.6255653,0,1
108,16,67,80,16.23541667,0.235416667,391.995436,1,1
110,16.25,69,80,16.36666667,0.116666667,440,0,0
112,16.375,71,80,16.49166667,0.116666667,493.8833013,0,0
114,16.5,72,80,16.73541667,0.235416667,523.2511306,0,0
116,16.75,74,80,16.98541667,0.235416667,587.3295358,0,0
118,17,75,80,17.47291667,0.472916667,622.2539674,0,1
120,17.5,74,80,17.97291667,0.472916667,587.3295358,0,0
122,18,63,80,18.23541667,0.235416667,311.1269837,0,1
124,18.25,62,80,18.48541667,0.235416667,293.6647679,0,0
126,18.5,63,80,18.73541667,0.235416667,311.1269837,0,0
128,18.75,67,80,18.98541667,0.235416667,391.995436,0,0
130,19,72,80,19.71041667,0.710416667,523.2511306,0,1
132,19.75,72,80,19.98541667,0.235416667,523.2511306,0,0
134,20,72,80,20.23541667,0.235416667,523.2511306,0,1
136,20.25,74,80,20.36666667,0.116666667,587.3295358,0,0
138,20.375,75,80,20.49166667,0.116666667,622.2539674,0,0
140,20.5,77,80,20.73541667,0.235416667,698.4564629,0,0
142,20.75,79,80,20.98541667,0.235416667,783.990872,0,0
144,21,80,80,21.23541667,0.235416667,830.6093952,0,1
146,21.25,79,80,21.36666667,0.116666667,783.990872,0,0
148,21.375,77,80,21.49166667,0.116666667,698.4564629,0,0
150,21.5,79,80,21.73541667,0.235416667,783.990872,0,0
152,21.75,74,80,21.98541667,0.235416667,587.3295358,0,0
154,22,74,80,22.23541667,0.235416667,587.3295358,0,1
156,22.25,75,80,22.36666667,0.116666667,622.2539674,0,0
158,22.375,77,80,22.49166667,0.116666667,698.4564629,0,0
160,22.5,75,80,22.61666667,0.116666667,622.2539674,0,0
162,22.625,74,80,22.74166667,0.116666667,587.3295358,0,0
164,22.75,72,80,22.98541667,0.235416667,523.2511306,0,0
166,23,79,80,23.47291667,0.472916667,783.990872,0,1
168,23.5,79,80,23.97291667,0.472916667,783.990872,0,0
170,24,72,80,24.23541667,0.235416667,523.2511306,1,1
172,24.25,71,80,24.48541667,0.235416667,493.8833013,0,0
174,24.5,72,80,24.73541667,0.235416667,523.2511306,0,0
176,24.75,74,80,24.98541667,0.235416667,587.3295358,0,0
178,25,75,80,25.23541667,0.235416667,622.2539674,0,1
180,25.25,77,80,25.48541667,0.235416667,698.4564629,0,0
182,25.5,79,80,25.97291667,0.472916667,783.990872,0,0
184,26,79,80,26.47291667,0.472916667,783.990872,0,1
186,26.5,72,80,26.97291667,0.472916667,523.2511306,0,0
188,27,72,80,27.47291667,0.472916667,523.2511306,0,1
190,27.5,84,80,27.73541667,0.235416667,1046.502261,0,0
192,27.75,79,80,27.98541667,0.235416667,783.990872,0,0
194,28,80,80,28.71041667,0.710416667,830.6093952,0,1
196,28.75,79,80,28.98541667,0.235416667,783.990872,0,0
198,29,77,80,29.23541667,0.235416667,698.4564629,0,1
200,29.25,75,80,29.48541667,0.235416667,622.2539674,0,0
202,29.5,74,80,29.73541667,0.235416667,587.3295358,0,0
204,29.75,72,80,29.98541667,0.235416667,523.2511306,0,0
206,30,71,80,30.23541667,0.235416667,493.8833013,0,1
208,30.25,69,80,30.48541667,0.235416667,440,0,0
210,30.5,71,80,30.73541667,0.235416667,493.8833013,0,0
212,30.75,72,80,30.98541667,0.235416667,523.2511306,0,0
214,31,74,80,31.47291667,0.472916667,587.3295358,0,1
216,31.5,72,80,31.97291667,0.472916667,523.2511306,0,0
218,32,72,80,32.71041667,0.710416667,523.2511306,1,1
220,32.75,74,80,32.98541667,0.235416667,587.3295358,0,0
222,33,75,80,33.23541667,0.235416667,622.2539674,0,1
224,33.25,72,80,33.48541667,0.235416667,523.2511306,0,0
226,33.5,77,80,33.73541667,0.235416667,698.4564629,0,0
228,33.75,72,80,33.98541667,0.235416667,523.2511306,0,0
230,34,79,80,34.47291667,0.472916667,783.990872,0,1
232,34.5,72,80,35.21041667,0.710416667,523.2511306,0,0
234,35.25,72,80,35.48541667,0.235416667,523.2511306,0,0
236,35.5,77,80,35.73541667,0.235416667,698.4564629,0,0
238,35.75,75,80,35.98541667,0.235416667,622.2539674,0,0
240,36,80,80,36.23541667,0.235416667,830.6093952,0,1
242,36.25,74,80,36.48541667,0.235416667,587.3295358,0,0
244,36.5,83,80,36.73541667,0.235416667,987.7666025,0,0
246,36.75,84,80,36.98541667,0.235416667,1046.502261,0,0
248,37,74,80,37.23541667,0.235416667,587.3295358,0,1
250,37.25,80,80,37.48541667,0.235416667,830.6093952,0,0
252,37.5,79,80,37.73541667,0.235416667,783.990872,0,0
254,37.75,77,80,37.98541667,0.235416667,698.4564629,0,0
256,38,75,80,38.23541667,0.235416667,622.2539674,0,1
258,38.25,79,80,38.48541667,0.235416667,783.990872,0,0
260,38.5,72,80,38.73541667,0.235416667,523.2511306,0,0
262,38.75,71,80,38.98541667,0.235416667,493.8833013,0,0
264,39,72,80,39.23541667,0.235416667,523.2511306,0,1
266,39.25,75,80,39.48541667,0.235416667,622.2539674,0,0
268,39.5,72,80,39.97291667,0.472916667,523.2511306,0,0
270,40,67,80,40.94791667,0.947916667,391.995436,1,1
272,41,72,80,41.47291667,0.472916667,523.2511306,0,1
274,41.5,71,80,41.97291667,0.472916667,493.8833013,0,0
276,42,72,80,42.47291667,0.472916667,523.2511306,0,1
278,42.5,74,80,42.97291667,0.472916667,587.3295358,0,0
280,43,75,80,43.47291667,0.472916667,622.2539674,0,1
282,43.5,72,80,43.97291667,0.472916667,523.2511306,0,0
284,44,80,80,44.94791667,0.947916667,830.6093952,0,1
286,45,80,80,45.47291667,0.472916667,830.6093952,0,1
288,45.5,79,80,45.97291667,0.472916667,783.990872,0,0
290,46,75,80,46.47291667,0.472916667,622.2539674,0,1
292,46.5,74,80,46.97291667,0.472916667,587.3295358,0,0
294,47,72,80,47.94791667,0.947916667,523.2511306,0,1
296,48,67,80,48.23541667,0.235416667,391.995436,1,1
298,48.25,60,80,48.48541667,0.235416667,261.6255653,0,0
300,48.5,63,80,48.73541667,0.235416667,311.1269837,0,0
302,48.75,67,80,48.98541667,0.235416667,391.995436,0,0
304,49,72,80,49.47291667,0.472916667,523.2511306,0,1
306,49.5,68,80,49.97291667,0.472916667,415.3046976,0,0
308,50,67,80,50.23541667,0.235416667,391.995436,0,1
310,50.25,60,80,50.48541667,0.235416667,261.6255653,0,0
312,50.5,63,80,50.73541667,0.235416667,311.1269837,0,0
314,50.75,67,80,50.98541667,0.235416667,391.995436,0,0
316,51,72,80,51.47291667,0.472916667,523.2511306,0,1
318,51.5,75,80,51.97291667,0.472916667,622.2539674,0,0
320,52,68,80,52.47291667,0.472916667,415.3046976,0,1
322,52.5,68,80,52.97291667,0.472916667,415.3046976,0,0
324,53,77,80,53.47291667,0.472916667,698.4564629,0,1
326,53.5,68,80,53.97291667,0.472916667,415.3046976,0,0
328,54,68,80,54.94791667,0.947916667,415.3046976,0,1
330,55,67,80,55.94791667,0.947916667,391.995436,0,1
332,56,67,80,56.31458333,0.314583333,391.995436,1,1
334,56.33333333,65,80,56.64791667,0.314583333,349.2282314,0,0
336,56.66666667,67,80,56.98125,0.314583333,391.995436,0,0
338,57,68,80,57.31458333,0.314583333,415.3046976,0,1
340,57.33333333,67,80,57.64791667,0.314583333,391.995436,0,0
342,57.66666667,65,80,57.98125,0.314583333,349.2282314,0,0
344,58,67,80,59.26458333,1.264583333,391.995436,0,1
346,59.33333333,65,80,59.64791667,0.314583333,349.2282314,0,0
348,59.66666667,63,80,59.98125,0.314583333,311.1269837,0,0
350,60,62,80,60.31458333,0.314583333,293.6647679,0,1
352,60.33333333,63,80,60.64791667,0.314583333,311.1269837,0,0
354,60.66666667,65,80,60.98125,0.314583333,349.2282314,0,0
356,61,63,80,61.31458333,0.314583333,311.1269837,0,1
358,61.33333333,62,80,61.64791667,0.314583333,293.6647679,0,0
360,61.66666667,60,80,61.98125,0.314583333,261.6255653,0,0
362,62,59,80,62.31458333,0.314583333,246.9416506,0,1
364,62.33333333,60,80,62.64791667,0.314583333,261.6255653,0,0
366,62.66666667,62,80,62.98125,0.314583333,293.6647679,0,0
368,63,60,80,63.94791667,0.947916667,261.6255653,0,1
