Column1,onset_sec,note,velocity,offset,duration,freq,boundary,changable_notes
16,0,64,80,0.235416667,0.235416667,329.6275569,0,0
18,0.25,65,80,0.485416667,0.235416667,349.2282314,0,0
20,0.5,67,80,0.735416667,0.235416667,391.995436,0,0
22,0.75,72,80,0.985416667,0.235416667,523.2511306,0,0
24,1,74,80,1.235416667,0.235416667,587.3295358,0,1
26,1.25,71,80,1.485416667,0.235416667,493.8833013,0,0
28,1.5,72,80,1.735416667,0.235416667,523.2511306,0,0
30,1.75,64,80,1.985416667,0.235416667,329.6275569,0,0
32,2,69,80,2.235416667,0.235416667,440,0,1
34,2.25,65,80,2.485416667,0.235416667,349.2282314,0,0
36,2.5,67,80,3.210416667,0.710416667,391.995436,0,0
38,3.25,65,80,3.485416667,0.235416667,349.2282314,0,0
40,3.5,64,80,3.735416667,0.235416667,329.6275569,0,0
42,3.75,62,80,3.985416667,0.235416667,293.6647679,0,0
44,4,60,80,4.235416667,0.235416667,261.6255653,0,1
46,4.25,59,80,4.485416667,0.235416667,246.9416506,0,0
48,4.5,57,80,4.735416667,0.235416667,220,0,0
50,4.75,60,80,4.985416667,0.235416667,261.6255653,0,0
52,5,62,80,5.235416667,0.235416667,293.6647679,0,1
54,5.25,64,80,5.485416667,0.235416667,329.6275569,0,0
56,5.5,65,80,5.735416667,0.235416667,349.2282314,0,0
58,5.75,69,80,5.985416667,0.235416667,440,0,0
60,6,67,80,6.235416667,0.235416667,391.995436,0,1
62,6.25,65,80,6.485416667,0.235416667,349.2282314,0,0
64,6.5,64,80,6.972916667,0.472916667,329.6275569,0,0
66,7,60,80,7.947916667,0.947916667,261.6255653,0,1
68,8,67,80,8.472916667,0.472916667,391.995436,1,1
70,8.5,76,80,8.972916667,0.472916667,659.2551138,0,0
72,9,76,80,9.472916667,0.472916667,659.2551138,0,1
74,9.5,74,80,9.735416667,0.235416667,587.3295358,0,0
76,9.75,72,80,9.985416667,0.235416667,523.2511306,0,0
78,10,74,80,10.47291667,0.472916667,587.3295358,0,1
80,10.5,76,80,10.97291667,0.472916667,659.2551138,0,0
82,11,77,80,11.94791667,0.947916667,698.4564629,0,1
84,12,79,80,12.23541667,0.235416667,783.990872,0,1
86,12.25,76,80,12.48541667,0.235416667,659.2551138,0,0
88,12.5,77,80,12.73541667,0.235416667,698.4564629,0,0
90,12.75,74,80,12.98541667,0.235416667,587.3295358,0,0
92,13,67,80,13.23541667,0.235416667,391.995436,0,1
94,13.25,74,80,13.36666667,0.116666667,587.3295358,0,0
96,13.375,76,80,13.49166667,0.116666667,659.2551138,0,0
98,13.5,77,80,13.73541667,0.235416667,698.4564629,0,0
100,13.75,74,80,13.98541667,0.235416667,587.3295358,0,0
102,14,76,80,14.23541667,0.235416667,659.2551138,0,1
104,14.25,72,80,14.48541667,0.235416667,523.2511306,0,0
106,14.5,74,80,14.73541667,0.235416667,587.3295358,0,0
108,14.75,71,80,14.98541667,0.235416667,493.8833013,0,0
110,15,72,80,15.94791667,0.947916667,523.2511306,0,1
112,16,67,80,16.47291667,0.472916667,391.995436,1,1
114,16.5,69,80,16.97291667,0.472916667,440,0,0
116,17,65,80,17.23541667,0.235416667,349.2282314,0,1
118,17.25,67,80,17.48541667,0.235416667,391.995436,0,0
120,17.5,69,80,17.73541667,0.235416667,440,0,0
122,17.75,71,80,17.98541667,0.235416667,493.8833013,0,0
124,18,72,80,18.47291667,0.472916667,523.2511306,0,1
126,18.5,64,80,18.73541667,0.235416667,329.6275569,0,0
128,18.75,67,80,18.98541667,0.235416667,391.995436,0,0
130,19,72,80,19.47291667,0.472916667,523.2511306,0,1
132,19.5,72,80,19.73541667,0.235416667,523.2511306,0,0
134,19.75,71,80,19.98541667,0.235416667,493.8833013,0,0
136,20,72,80,20.47291667,0.472916667,523.2511306,0,1
138,20.5,62,80,20.73541667,0.235416667,293.6647679,0,0
140,20.75,64,80,20.98541667,0.235416667,329.6275569,0,0
142,21,65,80,21.23541667,0.235416667,349.2282314,0,1
144,21.25,67,80,21.48541667,0.235416667,391.995436,0,0
146,21.5,69,80,21.73541667,0.235416667,440,0,0
148,21.75,65,80,21.98541667,0.235416667,349.2282314,0,0
150,22,67,80,22.47291667,0.472916667,391.995436,0,1
152,22.5,65,80,22.73541667,0.235416667,349.2282314,0,0
154,22.75,64,80,22.98541667,0.235416667,329.6275569,0,0
156,23,62,80,23.23541667,0.235416667,293.6647679,0,1
158,23.25,64,80,23.48541667,0.235416667,329.6275569,0,0
160,23.5,60,80,23.97291667,0.472916667,261.6255653,0,0
162,24,76,80,25.18541667,1.185416667,659.2551138,1,1
164,25.25,74,80,25.48541667,0.235416667,587.3295358,0,1
166,25.5,72,80,25.73541667,0.235416667,523.2511306,0,0
168,25.75,71,80,25.98541667,0.235416667,493.8833013,0,0
170,26,72,80,26.23541667,0.235416667,523.2511306,0,1
172,26.25,67,80,26.48541667,0.235416667,391.995436,0,0
174,26.5,69,80,26.73541667,0.235416667,440,0,0
176,26.75,71,80,26.98541667,0.235416667,493.8833013,0,0
178,27,72,80,27.23541667,0.235416667,523.2511306,0,1
180,27.25,74,80,27.48541667,0.235416667,587.3295358,0,0
182,27.5,76,80,27.73541667,0.235416667,659.2551138,0,0
184,27.75,77,80,27.98541667,0.235416667,698.4564629,0,0
186,28,79,80,28.23541667,0.235416667,783.990872,0,1
188,28.25,76,80,28.48541667,0.235416667,659.2551138,0,0
190,28.5,72,80,28.73541667,0.235416667,523.2511306,0,0
192,28.75,71,80,28.98541667,0.235416667,493.8833013,0,0
194,29,72,80,29.23541667,0.235416667,523.2511306,0,1
196,29.25,69,80,29.48541667,0.235416667,440,0,0
198,29.5,67,80,29.73541667,0.235416667,391.995436,0,0
200,29.75,65,80,29.98541667,0.235416667,349.2282314,0,0
202,30,64,80,30.23541667,0.235416667,329.6275569,0,1
204,30.25,65,80,30.48541667,0.235416667,349.2282314,0,0
206,30.5,67,80,30.73541667,0.235416667,391.995436,0,0
208,30.75,69,80,30.98541667,0.235416667,440,0,0
210,31,71,80,31.47291667,0.472916667,493.8833013,0,1
212,31.5,72,80,31.97291667,0.472916667,523.2511306,0,0
214,32,72,80,32.47291667,0.472916667,523.2511306,1,1
216,32.5,71,80,32.73541667,0.235416667,493.8833013,0,0
218,32.75,69,80,32.98541667,0.235416667,440,0,0
220,33,67,80,33.47291667,0.472916667,391.995436,0,1
222,33.5,65,80,33.97291667,0.472916667,349.2282314,0,0
224,34,64,80,34.47291667,0.472916667,329.6275569,0,1
226,34.5,65,80,34.73541667,0.235416667,349.2282314,0,0
228,34.75,64,80,34.98541667,0.235416667,329.6275569,0,0
230,35,62,80,35.47291667,0.472916667,293.6647679,0,1
232,35.5,60,80,35.97291667,0.472916667,261.6255653,0,0
234,36,72,80,36.47291667,0.472916667,523.2511306,0,1
236,36.5,67,80,36.73541667,0.235416667,391.995436,0,0
238,36.75,65,80,36.98541667,0.235416667,349.2282314,0,0
240,37,64,80,37.47291667,0.472916667,329.6275569,0,1
242,37.5,62,80,37.97291667,0.472916667,293.6647679,0,0
244,38,60,80,38.47291667,0.472916667,261.6255653,0,1
246,38.5,59,80,38.73541667,0.235416667,246.9416506,0,0
248,38.75,62,80,38.98541667,0.235416667,293.6647679,0,0
250,39,60,80,39.94791667,0.947916667,261.6255653,0,1
252,40,64,80,40.23541667,0.235416667,329.6275569,1,1
254,40.25,65,80,40.48541667,0.235416667,349.2282314,0,0
256,40.5,67,80,40.97291667,0.472916667,391.995436,0,0
258,41,60,80,41.23541667,0.235416667,261.6255653,0,1
260,41.25,59,80,41.48541667,0.235416667,246.9416506,0,0
262,41.5,60,80,41.97291667,0.472916667,261.6255653,0,0
264,42,72,80,42.47291667,0.472916667,523.2511306,0,1
266,42.5,71,80,42.97291667,0.472916667,493.8833013,0,0
268,43,69,80,43.23541667,0.235416667,440,0,1
270,43.25,71,80,43.48541667,0.235416667,493.8833013,0,0
272,43.5,67,80,43.97291667,0.472916667,391.995436,0,0
274,44,62,80,44.23541667,0.235416667,293.6647679,0,1
276,44.25,64,80,44.48541667,0.235416667,329.6275569,0,0
278,44.5,65,80,44.97291667,0.472916667,349.2282314,0,0
280,45,59,80,45.23541667,0.235416667,246.9416506,0,1
282,45.25,57,80,45.48541667,0.235416667,220,0,0
284,45.5,59,80,45.97291667,0.472916667,246.9416506,0,0
286,46,67,80,46.47291667,0.472916667,391.995436,0,1
288,46.5,65,80,46.73541667,0.235416667,349.2282314,0,0
290,46.75,64,80,46.98541667,0.235416667,329.6275569,0,0
292,47,62,80,47.23541667,0.235416667,293.6647679,0,1
294,47.25,64,80,47.48541667,0.235416667,329.6275569,0,0
296,47.5,60,80,47.97291667,0.472916667,261.6255653,0,0
298,48,72,80,48.47291667,0.472916667,523.2511306,1,1
300,48.5,71,80,48.73541667,0.235416667,493.8833013,0,0
302,48.75,69,80,48.98541667,0.235416667,440,0,0
304,49,67,80,49.23541667,0.235416667,391.995436,0,1
306,49.25,65,80,49.48541667,0.235416667,349.2282314,0,0
308,49.5,64,80,49.73541667,0.235416667,329.6275569,0,0
310,49.75,65,80,49.98541667,0.235416667,349.2282314,0,0
312,50,67,80,50.23541667,0.235416667,391.995436,0,1
314,50.25,65,80,50.48541667,0.235416667,349.2282314,0,0
316,50.5,64,80,50.73541667,0.235416667,329.6275569,0,0
318,50.75,62,80,50.98541667,0.235416667,293.6647679,0,0
320,51,60,80,51.23541667,0.235416667,261.6255653,0,1
322,51.25,59,80,51.48541667,0.235416667,246.9416506,0,0
324,51.5,57,80,51.73541667,0.235416667,220,0,0
326,51.75,55,80,51.98541667,0.235416667,195.997718,0,0
328,52,57,80,52.23541667,0.235416667,220,0,1
330,52.25,60,80,52.48541667,0.235416667,261.6255653,0,0
332,52.5,62,80,52.73541667,0.235416667,293.6647679,0,0
334,52.75,64,80,52.98541667,0.235416667,329.6275569,0,0
336,53,65,80,53.23541667,0.235416667,349.2282314,0,1
338,53.25,64,80,53.48541667,0.235416667,329.6275569,0,0
340,53.5,62,80,53.73541667,0.235416667,293.6647679,0,0
342,53.75,60,80,53.98541667,0.235416667,261.6255653,0,0
344,54,59,80,54.23541667,0.235416667,246.9416506,0,1
346,54.25,60,80,54.48541667,0.235416667,261.6255653,0,0
348,54.5,62,80,54.73541667,0.235416667,293.6647679,0,0
350,54.75,59,80,54.98541667,0.235416667,246.9416506,0,0
352,55,60,80,55.23541667,0.235416667,261.6255653,0,1
354,55.25,60,80,55.48541667,0.235416667,261.6255653,0,0
356,55.5,60,80,55.97291667,0.472916667,261.6255653,0,0
358,56,60,80,56.23541667,0.235416667,261.6255653,1,1
360,56.25,62,80,56.48541667,0.235416667,293.6647679,0,0
362,56.5,64,80,56.73541667,0.235416667,329.6275569,0,0
364,56.75,65,80,56.98541667,0.235416667,349.2282314,0,0
366,57,67,80,57.94791667,0.947916667,391.995436,0,1
368,58,69,80,58.47291667,0.472916667,440,0,1
370,58.5,65,80,58.97291667,0.472916667,349.2282314,0,0
372,59,67,80,59.94791667,0.947916667,391.995436,0,1
374,60,69,80,60.47291667,0.472916667,440,0,1
376,60.5,64,80,60.97291667,0.472916667,329.6275569,0,0
378,61,65,80,61.94791667,0.947916667,349.2282314,0,1
380,62,62,80,62.94791667,0.947916667,293.6647679,0,1
382,63,60,80,63.94791667,0.947916667,261.6255653,0,0
