Column1,onset_sec,note,velocity,offset,duration,freq,boundary,changable_notes
16,0.25,60,80,0.485416667,0.235416667,261.6255653,0,0
18,0.5,62,80,0.735416667,0.235416667,293.6647679,0,0
20,0.75,64,80,0.985416667,0.235416667,329.6275569,0,0
22,1,65,80,1.235416667,0.235416667,349.2282314,0,1
24,1.25,62,80,1.485416667,0.235416667,293.6647679,0,0
26,1.5,64,80,1.735416667,0.235416667,329.6275569,0,0
28,1.75,60,80,1.985416667,0.235416667,261.6255653,0,0
30,2,67,80,2.472916667,0.472916667,391.995436,0,1
32,2.5,72,80,2.972916667,0.472916667,523.2511306,0,0
34,3,71,80,3.472916667,0.472916667,493.8833013,0,1
36,3.5,72,80,3.972916667,0.472916667,523.2511306,0,0
38,4,74,80,4.235416667,0.235416667,587.3295358,0,1
40,4.25,67,80,4.485416667,0.235416667,391.995436,0,0
42,4.5,69,80,4.735416667,0.235416667,440,0,0
44,4.75,71,80,4.985416667,0.235416667,493.8833013,0,0
46,5,72,80,5.235416667,0.235416667,523.2511306,0,1
48,5.25,69,80,5.485416667,0.235416667,440,0,0
50,5.5,71,80,5.735416667,0.235416667,493.8833013,0,0
52,5.75,67,80,5.985416667,0.235416667,391.995436,0,0
54,6,74,80,6.472916667,0.472916667,587.3295358,0,1
56,6.5,79,80,6.972916667,0.472916667,783.990872,0,0
58,7,67,80,8.185416667,1.185416667,391.995436,0,1
60,8.25,79,80,8.485416667,0.235416667,783.990872,1,1
62,8.5,67,80,8.735416667,0.235416667,391.995436,0,0
64,8.75,79,80,8.985416667,0.235416667,783.990872,0,0
66,9,79,80,9.235416667,0.235416667,783.990872,0,1
68,9.25,81,80,9.485416667,0.235416667,880,0,0
70,9.5,79,80,9.735416667,0.235416667,783.990872,0,0
72,9.75,81,80,9.985416667,0.235416667,880,0,0
74,10,77,80,10.23541667,0.235416667,698.4564629,0,1
76,10.25,77,80,10.48541667,0.235416667,698.4564629,0,0
78,10.5,65,80,10.73541667,0.235416667,349.2282314,0,0
80,10.75,77,80,10.98541667,0.235416667,698.4564629,0,0
82,11,77,80,11.23541667,0.235416667,698.4564629,0,1
84,11.25,79,80,11.48541667,0.235416667,783.990872,0,0
86,11.5,77,80,11.73541667,0.235416667,698.4564629,0,0
88,11.75,79,80,11.98541667,0.235416667,783.990872,0,0
90,12,76,80,12.23541667,0.235416667,659.2551138,0,1
92,12.25,67,80,12.48541667,0.235416667,391.995436,0,0
94,12.5,72,80,12.73541667,0.235416667,523.2511306,0,0
96,12.75,74,80,12.98541667,0.235416667,587.3295358,0,0
98,13,76,80,13.23541667,0.235416667,659.2551138,0,1
100,13.25,67,80,13.48541667,0.235416667,391.995436,0,0
102,13.5,72,80,13.73541667,0.235416667,523.2511306,0,0
104,13.75,74,80,13.98541667,0.235416667,587.3295358,0,0
106,14,76,80,14.11666667,0.116666667,659.2551138,0,1
108,14.125,77,80,14.24166667,0.116666667,698.4564629,0,0
110,14.25,74,80,14.36666667,0.116666667,587.3295358,0,0
112,14.375,76,80,14.49166667,0.116666667,659.2551138,0,0
114,14.5,72,80,14.97291667,0.472916667,523.2511306,0,0
116,15,67,80,15.47291667,0.472916667,391.995436,0,1
118,15.5,72,80,16.21041667,0.710416667,523.2511306,0,0
120,16.25,67,80,16.48541667,0.235416667,391.995436,1,1
122,16.5,69,80,16.73541667,0.235416667,440,0,0
124,16.75,71,80,16.98541667,0.235416667,493.8833013,0,0
126,17,72,80,17.23541667,0.235416667,523.2511306,0,0
128,17.25,74,80,17.48541667,0.235416667,587.3295358,0,0
130,17.5,76,80,17.73541667,0.235416667,659.2551138,0,0
132,17.75,77,80,17.98541667,0.235416667,698.4564629,0,0
134,18,79,80,18.23541667,0.235416667,783.990872,0,1
136,18.25,77,80,18.48541667,0.235416667,698.4564629,0,0
138,18.5,79,80,18.73541667,0.235416667,783.990872,0,0
140,18.75,81,80,18.98541667,0.235416667,880,0,0
142,19,74,80,19.23541667,0.235416667,587.3295358,0,1
144,19.25,81,80,19.48541667,0.235416667,880,0,0
146,19.5,79,80,19.73541667,0.235416667,783.990872,0,0
148,19.75,77,80,19.98541667,0.235416667,698.4564629,0,0
150,20,76,80,20.23541667,0.235416667,659.2551138,0,1
152,20.25,60,80,20.48541667,0.235416667,261.6255653,0,0
154,20.5,62,80,20.73541667,0.235416667,293.6647679,0,0
156,20.75,64,80,20.98541667,0.235416667,329.6275569,0,0
158,21,65,80,21.23541667,0.235416667,349.2282314,0,1
160,21.25,67,80,21.48541667,0.235416667,391.995436,0,0
162,21.5,69,80,21.73541667,0.235416667,440,0,0
164,21.75,71,80,21.98541667,0.235416667,493.8833013,0,0
166,22,72,80,22.23541667,0.235416667,523.2511306,0,1
168,22.25,71,80,22.48541667,0.235416667,493.8833013,0,0
170,22.5,72,80,22.97291667,0.472916667,523.2511306,0,0
172,23,76,80,23.23541667,0.235416667,659.2551138,0,1
174,23.25,74,80,23.48541667,0.235416667,587.3295358,0,0
176,23.5,72,80,24.44791667,0.947916667,523.2511306,0,0
178,24.5,67,80,24.73541667,0.235416667,391.995436,1,1
180,24.75,64,80,24.98541667,0.235416667,329.6275569,0,0
182,25,69,80,25.47291667,0.472916667,440,0,0
184,25.5,67,80,25.97291667,0.472916667,391.995436,0,0
186,26,65,80,26.47291667,0.472916667,349.2282314,0,1
188,26.5,64,80,26.73541667,0.235416667,329.6275569,0,0
190,26.75,62,80,26.98541667,0.235416667,293.6647679,0,0
192,27,67,80,27.23541667,0.235416667,391.995436,0,1
194,27.25,69,80,27.48541667,0.235416667,440,0,0
196,27.5,65,80,27.73541667,0.235416667,349.2282314,0,0
198,27.75,67,80,27.98541667,0.235416667,391.995436,0,0
200,28,64,80,28.23541667,0.235416667,329.6275569,0,1
202,28.25,65,80,28.48541667,0.235416667,349.2282314,0,0
204,28.5,67,80,28.97291667,0.472916667,391.995436,0,0
206,29,67,80,29.47291667,0.472916667,391.995436,0,1
208,29.5,65,80,29.97291667,0.472916667,349.2282314,0,0
210,30,64,80,30.23541667,0.235416667,329.6275569,0,1
212,30.25,65,80,30.48541667,0.235416667,349.2282314,0,0
214,30.5,67,80,30.73541667,0.235416667,391.995436,0,0
216,30.75,69,80,30.98541667,0.235416667,440,0,0
218,31,62,80,31.47291667,0.472916667,293.6647679,0,1
220,31.5,60,80,31.97291667,0.472916667,261.6255653,0,0
222,32,72,80,32.47291667,0.472916667,523.2511306,1,1
224,32.5,71,80,32.73541667,0.235416667,493.8833013,0,0
226,32.75,72,80,32.98541667,0.235416667,523.2511306,0,0
228,33,74,80,33.47291667,0.472916667,587.3295358,0,1
230,33.5,72,80,33.73541667,0.235416667,523.2511306,0,0
232,33.75,71,80,33.98541667,0.235416667,493.8833013,0,0
234,34,72,80,34.94791667,0.947916667,523.2511306,0,1
236,35,72,80,35.23541667,0.235416667,523.2511306,0,1
238,35.25,74,80,35.48541667,0.235416667,587.3295358,0,0
240,35.5,71,80,35.73541667,0.235416667,493.8833013,0,0
242,35.75,72,80,35.98541667,0.235416667,523.2511306,0,0
244,36,74,80,36.23541667,0.235416667,587.3295358,0,1
246,36.25,67,80,36.48541667,0.235416667,391.995436,0,0
248,36.5,76,80,36.73541667,0.235416667,659.2551138,0,0
250,36.75,67,80,36.98541667,0.235416667,391.995436,0,0
252,37,77,80,37.23541667,0.235416667,698.4564629,0,1
254,37.25,67,80,37.48541667,0.235416667,391.995436,0,0
256,37.5,79,80,37.97291667,0.472916667,783.990872,0,0
258,38,76,80,38.23541667,0.235416667,659.2551138,0,1
260,38.25,74,80,38.48541667,0.235416667,587.3295358,0,0
262,38.5,72,80,38.73541667,0.235416667,523.2511306,0,0
264,38.75,74,80,38.98541667,0.235416667,587.3295358,0,0
266,39,71,80,39.47291667,0.472916667,493.8833013,0,1
268,39.5,72,80,40.44791667,0.947916667,523.2511306,0,0
270,40.5,67,80,40.97291667,0.472916667,391.995436,1,1
272,41,64,80,41.47291667,0.472916667,329.6275569,0,0
274,41.5,69,80,41.97291667,0.472916667,440,0,0
276,42,62,80,42.47291667,0.472916667,293.6647679,0,1
278,42.5,64,80,42.73541667,0.235416667,329.6275569,0,0
280,42.75,65,80,42.98541667,0.235416667,349.2282314,0,0
282,43,67,80,43.47291667,0.472916667,391.995436,0,1
284,43.5,55,80,43.97291667,0.472916667,195.997718,0,0
286,44,60,80,44.47291667,0.472916667,261.6255653,0,1
288,44.5,62,80,44.73541667,0.235416667,293.6647679,0,0
290,44.75,64,80,44.98541667,0.235416667,329.6275569,0,0
292,45,65,80,45.23541667,0.235416667,349.2282314,0,1
294,45.25,67,80,45.48541667,0.235416667,391.995436,0,0
296,45.5,64,80,45.73541667,0.235416667,329.6275569,0,0
298,45.75,65,80,45.98541667,0.235416667,349.2282314,0,0
300,46,62,80,46.23541667,0.235416667,293.6647679,0,1
302,46.25,64,80,46.48541667,0.235416667,329.6275569,0,0
304,46.5,65,80,46.73541667,0.235416667,349.2282314,0,0
306,46.75,67,80,46.98541667,0.235416667,391.995436,0,0
308,47,60,80,47.94791667,0.947916667,261.6255653,0,1
310,48,72,80,48.23541667,0.235416667,523.2511306,1,1
312,48.25,74,80,48.48541667,0.235416667,587.3295358,0,0
314,48.5,76,80,48.73541667,0.235416667,659.2551138,0,0
316,48.75,72,80,48.98541667,0.235416667,523.2511306,0,0
318,49,67,80,49.23541667,0.235416667,391.995436,0,1
320,49.25,76,80,49.48541667,0.235416667,659.2551138,0,0
322,49.5,74,80,49.73541667,0.235416667,587.3295358,0,0
324,49.75,72,80,49.98541667,0.235416667,523.2511306,0,0
326,50,74,80,50.23541667,0.235416667,587.3295358,0,1
328,50.25,76,80,50.48541667,0.235416667,659.2551138,0,0
330,50.5,77,80,50.73541667,0.235416667,698.4564629,0,0
332,50.75,74,80,50.98541667,0.235416667,587.3295358,0,0
334,51,67,80,51.23541667,0.235416667,391.995436,0,1
336,51.25,77,80,51.48541667,0.235416667,698.4564629,0,0
338,51.5,76,80,51.73541667,0.235416667,659.2551138,0,0
340,51.75,74,80,51.98541667,0.235416667,587.3295358,0,0
342,52,76,80,52.23541667,0.235416667,659.2551138,0,1
344,52.25,72,80,52.48541667,0.235416667,523.2511306,0,0
346,52.5,81,80,52.73541667,0.235416667,880,0,0
348,52.75,79,80,52.98541667,0.235416667,783.990872,0,0
350,53,77,80,53.23541667,0.235416667,698.4564629,0,1
352,53.25,76,80,53.48541667,0.235416667,659.2551138,0,0
354,53.5,74,80,53.73541667,0.235416667,587.3295358,0,0
356,53.75,72,80,53.98541667,0.235416667,523.2511306,0,0
358,54,67,80,54.23541667,0.235416667,391.995436,0,1
360,54.25,69,80,54.48541667,0.235416667,440,0,0
362,54.5,71,80,54.73541667,0.235416667,493.8833013,0,0
364,54.75,67,80,54.98541667,0.235416667,391.995436,0,0
366,55,72,80,56.42291667,1.422916667,523.2511306,0,1
368,56.5,60,80,56.97291667,0.472916667,261.6255653,1,1
370,57,60,80,57.47291667,0.472916667,261.6255653,0,0
372,57.5,62,80,57.97291667,0.472916667,293.6647679,0,0
374,58,62,80,58.47291667,0.472916667,293.6647679,0,1
376,58.5,64,80,58.73541667,0.235416667,329.6275569,0,0
378,58.75,65,80,58.98541667,0.235416667,349.2282314,0,0
380,59,67,80,59.47291667,0.472916667,391.995436,0,1
382,59.5,65,80,59.73541667,0.235416667,349.2282314,0,0
384,59.75,67,80,59.98541667,0.235416667,391.995436,0,0
386,60,69,80,60.47291667,0.472916667,440,0,1
388,60.5,67,80,60.97291667,0.472916667,391.995436,0,0
390,61,65,80,61.47291667,0.472916667,349.2282314,0,1
392,61.5,64,80,61.73541667,0.235416667,329.6275569,0,0
394,61.75,62,80,61.98541667,0.235416667,293.6647679,0,0
396,62,60,80,63.89791667,1.897916667,261.6255653,0,0
